<?xml version="1.0" encoding="utf-8"?>
<!-- Generator: Adobe Illustrator 27.0.0, SVG Export Plug-In . SVG Version: 6.00 Build 0)  -->
<svg version="1.1" id="Layer_1" xmlns="http://www.w3.org/2000/svg" xmlns:xlink="http://www.w3.org/1999/xlink" x="0px" y="0px"
	 viewBox="0 0 551.1 209.3" style="enable-background:new 0 0 551.1 209.3;" xml:space="preserve">
<style type="text/css">
	.st0{fill:#4DA154;}
	.st1{fill:#FFFFFF;}
	.st2{fill:#232A3C;}
	.st3{font-family:'Helvetica';}
	.st4{font-size:79.8148px;}
</style>
<g>
	<path class="st0" d="M196.3,185.9h-127c-9.8,0-17.7-7.9-17.7-17.7v-127c0-9.8,7.9-17.7,17.7-17.7h127c9.8,0,17.7,7.9,17.7,17.7v127
		C214.1,178,206.1,185.9,196.3,185.9z"/>
	<g>
		<g>
			<path class="st1" d="M85.3,103.5l30.9-45.1v-0.2H87.9v-6h37.5v4.4l-30.7,45v0.2h31.1v6H85.3V103.5z"/>
			<path class="st1" d="M134.7,52h7.2v49.6h23.8v6h-30.9V52z"/>
		</g>
		<g>
			<path class="st1" d="M180.3,105.9L149.5,151v0.2h28.2v6h-37.5v-4.4l30.7-45v-0.2h-31.1v-6h40.6V105.9z"/>
			<path class="st1" d="M130.9,157.3h-7.2v-49.6H100v-6h30.9V157.3z"/>
		</g>
	</g>
	<text transform="matrix(1 0 0 1 255.5113 101.3898)"><tspan x="0" y="0" class="st2 st3 st4">Zeinab</tspan><tspan x="0" y="63.5" class="st2 st3 st4">Lundin</tspan></text>
</g>
</svg>
